<svg xmlns="http://www.w3.org/2000/svg" width="58" height="58" viewBox="0 0 58 58"><path d="M161-790.417l11.917-11.917-1.667-1.583L161-793.667l-10.25-10.25-1.667,1.583ZM161.014-770a28.272,28.272,0,0,1-11.311-2.283,29.312,29.312,0,0,1-9.215-6.2,29.27,29.27,0,0,1-6.2-9.2,28.194,28.194,0,0,1-2.285-11.3,28.273,28.273,0,0,1,2.283-11.311,29.311,29.311,0,0,1,6.2-9.214,29.269,29.269,0,0,1,9.2-6.2,28.194,28.194,0,0,1,11.3-2.286,28.272,28.272,0,0,1,11.311,2.283,29.311,29.311,0,0,1,9.214,6.2,29.269,29.269,0,0,1,6.2,9.2,28.194,28.194,0,0,1,2.286,11.3,28.273,28.273,0,0,1-2.283,11.311,29.312,29.312,0,0,1-6.2,9.215,29.27,29.27,0,0,1-9.2,6.2A28.194,28.194,0,0,1,161.014-770ZM161-772.333a25.736,25.736,0,0,0,18.917-7.75A25.736,25.736,0,0,0,187.667-799a25.736,25.736,0,0,0-7.75-18.917A25.736,25.736,0,0,0,161-825.667a25.736,25.736,0,0,0-18.917,7.75A25.737,25.737,0,0,0,134.333-799a25.737,25.737,0,0,0,7.75,18.917A25.736,25.736,0,0,0,161-772.333ZM161-799Z" transform="translate(828 190) rotate(-90)" fill="#fff"/></svg>